<svg width="28" height="35" viewBox="0 0 28 35" fill="none" xmlns="http://www.w3.org/2000/svg">
<path d="M27.3171 18.1279L25.8899 13.8501L27.3171 9.56934L23.554 6.91438L22.0992 2.64393L17.4398 2.62289L13.6584 0L9.87694 2.62452L5.21753 2.64556L3.76272 6.91438L0 9.56728L1.42716 13.8481L0 18.1259L3.76272 20.7818L5.00357 24.4207L2.18842 30.3999L6.47709 31.0225L9.43032 34.9472L13.6584 30.8671L17.9407 35L20.4657 31.0258L25.1902 30.4093L22.1858 24.7951L23.5523 20.7821L27.3171 18.1279ZM19.5292 29.6358L17.6478 32.5983L13.6583 28.7517L9.61618 32.6524L7.35021 29.6388L4.44953 29.2183L6.40849 25.057L9.87827 25.072L13.6583 27.6983L17.4397 25.0708L20.5851 25.0587L22.8061 29.2079L19.5292 29.6358ZM21.0848 23.2391L20.4332 23.5638L16.9371 23.5788L13.6584 25.8546L10.381 23.5788L6.49884 23.5638L6.3143 23.4816L5.08107 19.8604L1.81931 17.5575L3.05706 13.8481L1.81931 10.1374L5.08107 7.83755L6.34205 4.13425L10.381 4.11621L13.6584 1.84371L16.9358 4.11826L20.9747 4.1363L22.2357 7.83961L25.4975 10.1395L24.2597 13.8501L25.4975 17.5595L22.2357 19.8594L21.0848 23.2391Z" fill="#519259"/>
<path d="M13.6575 7.11707C9.80929 7.11707 6.67773 10.1367 6.67773 13.8504C6.67773 17.5611 9.80929 20.5838 13.6575 20.5838C17.5057 20.5838 20.6373 17.5611 20.6373 13.8504C20.6373 10.1351 17.5057 7.11707 13.6575 7.11707ZM13.6575 19.0875C10.6641 19.0875 8.2288 16.7381 8.2288 13.8504C8.2288 10.9627 10.6641 8.61337 13.6575 8.61337C16.6509 8.61337 19.0862 10.9627 19.0862 13.8504C19.0862 16.7384 16.6509 19.0875 13.6575 19.0875Z" fill="#519259"/>
</svg>
