<svg width="122" height="52" viewBox="0 0 122 52" fill="none" xmlns="http://www.w3.org/2000/svg">
<path d="M0.558594 33.8711C0.558594 32.9831 0.644531 31.9948 0.816406 30.9062C1.01693 29.7891 1.30339 28.6719 1.67578 27.5547C2.04818 26.4089 2.50651 25.306 3.05078 24.2461C3.6237 23.1576 4.26823 22.1979 4.98438 21.3672C5.72917 20.5078 6.5599 19.8203 7.47656 19.3047C8.42188 18.7891 9.45312 18.5312 10.5703 18.5312C11.3724 18.5312 12.0456 18.6888 12.5898 19.0039C13.1628 19.319 13.6211 19.7344 13.9648 20.25C14.3086 20.7656 14.5521 21.3529 14.6953 22.0117C14.8672 22.6419 14.9531 23.2865 14.9531 23.9453C14.3229 23.9453 13.8503 23.7591 13.5352 23.3867C13.2201 22.9857 12.9193 22.556 12.6328 22.0977C12.375 21.6107 12.0599 21.181 11.6875 20.8086C11.3438 20.4076 10.8138 20.207 10.0977 20.207C9.15234 20.207 8.30729 20.4648 7.5625 20.9805C6.84635 21.4961 6.21615 22.1693 5.67188 23C5.1276 23.8021 4.66927 24.7188 4.29688 25.75C3.95312 26.7812 3.66667 27.8125 3.4375 28.8438C3.23698 29.875 3.09375 30.8776 3.00781 31.8516C2.92188 32.7969 2.87891 33.599 2.87891 34.2578C2.76432 35.2318 2.75 36.2487 2.83594 37.3086C2.95052 38.3398 3.19401 39.2995 3.56641 40.1875C3.9388 41.0469 4.48307 41.7773 5.19922 42.3789C5.91536 42.9518 6.86068 43.2812 8.03516 43.3672C8.77995 43.3672 9.61068 43.2526 10.5273 43.0234C11.444 42.7656 12.3464 42.4792 13.2344 42.1641C14.151 41.8203 15.0247 41.4622 15.8555 41.0898C16.6862 40.6888 17.388 40.3451 17.9609 40.0586V41.7344C17.9323 41.7344 17.7461 41.806 17.4023 41.9492C17.0872 42.0638 16.6576 42.2214 16.1133 42.4219C15.5977 42.6224 14.9961 42.8372 14.3086 43.0664C13.6497 43.2956 12.9909 43.5391 12.332 43.7969C11.6732 44.026 11.0286 44.2552 10.3984 44.4844C9.79688 44.6849 9.28125 44.8568 8.85156 45C8.82292 45 8.76562 45 8.67969 45C8.59375 45.0286 8.52214 45.043 8.46484 45.043C6.88932 45.043 5.58594 44.7135 4.55469 44.0547C3.55208 43.3672 2.75 42.4935 2.14844 41.4336C1.54688 40.3451 1.13151 39.1419 0.902344 37.8242C0.673177 36.4779 0.558594 35.1602 0.558594 33.8711ZM19.5456 37.1367C19.5456 36.4779 19.6029 35.7188 19.7175 34.8594C19.8321 33.9714 20.0183 33.0833 20.2761 32.1953C20.5339 31.3073 20.849 30.4336 21.2214 29.5742C21.6224 28.7148 22.0951 27.9557 22.6394 27.2969C23.1836 26.6094 23.8139 26.0651 24.53 25.6641C25.2461 25.2344 26.0482 25.0195 26.9363 25.0195C27.8529 25.0195 28.698 25.3346 29.4714 25.9648C30.2735 26.5951 30.9467 27.4115 31.4909 28.4141C32.0639 29.4167 32.4935 30.5339 32.78 31.7656C33.0665 32.9974 33.181 34.2005 33.1238 35.375C33.1238 37.0938 32.7943 38.6263 32.1355 39.9727C31.4766 41.319 30.6316 42.4076 29.6003 43.2383C28.5977 44.069 27.5092 44.6276 26.3347 44.9141C25.1889 45.2005 24.1003 45.1289 23.0691 44.6992C22.0665 44.2409 21.2214 43.3958 20.5339 42.1641C19.8751 40.9323 19.5456 39.2565 19.5456 37.1367ZM21.1355 37.3086C21.2214 39.056 21.5222 40.4023 22.0378 41.3477C22.5534 42.293 23.1693 42.9232 23.8855 43.2383C24.6303 43.5247 25.4323 43.5247 26.2917 43.2383C27.1511 42.9518 27.9532 42.4505 28.698 41.7344C29.4428 40.9896 30.073 40.0729 30.5886 38.9844C31.1329 37.8672 31.4336 36.6211 31.4909 35.2461C31.5482 34.2148 31.4623 33.2122 31.2331 32.2383C31.0326 31.2643 30.7318 30.4049 30.3308 29.6602C29.9584 28.8867 29.4857 28.2852 28.9128 27.8555C28.3685 27.3971 27.7383 27.168 27.0222 27.168C26.3347 27.168 25.7188 27.3398 25.1745 27.6836C24.6303 28.0273 24.129 28.5 23.6706 29.1016C23.2409 29.6745 22.8685 30.3333 22.5534 31.0781C22.2383 31.8229 21.9662 32.5677 21.737 33.3125C21.5365 34.0573 21.379 34.7878 21.2644 35.5039C21.1784 36.1914 21.1355 36.793 21.1355 37.3086ZM35.267 37.1367C35.267 36.4779 35.3243 35.7188 35.4389 34.8594C35.5535 33.9714 35.7397 33.0833 35.9975 32.1953C36.2553 31.3073 36.5704 30.4336 36.9428 29.5742C37.3439 28.7148 37.8165 27.9557 38.3608 27.2969C38.9051 26.6094 39.5353 26.0651 40.2514 25.6641C40.9676 25.2344 41.7696 25.0195 42.6577 25.0195C43.5743 25.0195 44.4194 25.3346 45.1928 25.9648C45.9949 26.5951 46.6681 27.4115 47.2123 28.4141C47.7853 29.4167 48.2149 30.5339 48.5014 31.7656C48.7879 32.9974 48.9024 34.2005 48.8452 35.375C48.8452 37.0938 48.5157 38.6263 47.8569 39.9727C47.198 41.319 46.353 42.4076 45.3217 43.2383C44.3191 44.069 43.2306 44.6276 42.0561 44.9141C40.9103 45.2005 39.8217 45.1289 38.7905 44.6992C37.7879 44.2409 36.9428 43.3958 36.2553 42.1641C35.5965 40.9323 35.267 39.2565 35.267 37.1367ZM36.8569 37.3086C36.9428 39.056 37.2436 40.4023 37.7592 41.3477C38.2748 42.293 38.8907 42.9232 39.6069 43.2383C40.3517 43.5247 41.1538 43.5247 42.0131 43.2383C42.8725 42.9518 43.6746 42.4505 44.4194 41.7344C45.1642 40.9896 45.7944 40.0729 46.31 38.9844C46.8543 37.8672 47.1551 36.6211 47.2123 35.2461C47.2696 34.2148 47.1837 33.2122 46.9545 32.2383C46.754 31.2643 46.4532 30.4049 46.0522 29.6602C45.6798 28.8867 45.2071 28.2852 44.6342 27.8555C44.0899 27.3971 43.4597 27.168 42.7436 27.168C42.0561 27.168 41.4402 27.3398 40.8959 27.6836C40.3517 28.0273 39.8504 28.5 39.392 29.1016C38.9623 29.6745 38.5899 30.3333 38.2748 31.0781C37.9597 31.8229 37.6876 32.5677 37.4584 33.3125C37.2579 34.0573 37.1004 34.7878 36.9858 35.5039C36.8998 36.1914 36.8569 36.793 36.8569 37.3086ZM52.3634 43.8398C52.3348 43.2383 52.2632 42.3216 52.1486 41.0898C52.0627 39.8294 51.9624 38.4258 51.8478 36.8789C51.7332 35.3034 51.6186 33.6419 51.5041 31.8945C51.3895 30.1471 51.2749 28.5 51.1603 26.9531C51.0744 25.3776 50.9884 23.974 50.9025 22.7422C50.8166 21.4818 50.7593 20.5508 50.7306 19.9492C50.702 19.6914 50.6733 19.2474 50.6447 18.6172C50.6447 17.9583 50.6304 17.2708 50.6017 16.5547C50.5731 15.8099 50.5444 15.1224 50.5158 14.4922C50.5158 13.8333 50.5158 13.375 50.5158 13.1172C50.9168 13.1172 51.2749 13.2031 51.59 13.375C51.9051 13.5182 52.1629 13.776 52.3634 14.1484C52.4207 14.75 52.478 15.6094 52.5353 16.7266C52.6213 17.8151 52.7072 19.0755 52.7931 20.5078C52.8791 21.9401 52.965 23.4727 53.0509 25.1055C53.1655 26.7383 53.2658 28.3568 53.3517 29.9609C53.4377 29.8177 53.5236 29.6888 53.6095 29.5742C53.6955 29.4596 53.7528 29.388 53.7814 29.3594C54.0965 29.0156 54.4689 28.6146 54.8986 28.1562C55.3283 27.6979 55.7723 27.2253 56.2306 26.7383C56.7176 26.2513 57.1903 25.7786 57.6486 25.3203C58.1356 24.8333 58.5653 24.4036 58.9377 24.0312C59.3387 23.6302 59.6681 23.3151 59.9259 23.0859C60.1838 22.8568 60.3413 22.7422 60.3986 22.7422L62.0314 23.5586C61.5444 23.9883 60.9858 24.4896 60.3556 25.0625C59.7254 25.6354 59.1095 26.2513 58.508 26.9102C57.9064 27.5404 57.3192 28.2135 56.7463 28.9297C56.202 29.6172 55.758 30.3047 55.4142 30.9922C55.4142 31.0208 55.3999 31.0924 55.3713 31.207C55.3713 31.293 55.3713 31.3646 55.3713 31.4219C55.3713 31.4505 55.3713 31.5221 55.3713 31.6367C55.3999 31.7227 55.4142 31.7799 55.4142 31.8086L65.34 43.3672C65.34 43.3958 65.34 43.4531 65.34 43.5391C65.3686 43.625 65.383 43.6966 65.383 43.7539C65.383 44.2982 65.0965 44.7135 64.5236 45L53.7814 32.625C53.7528 32.5964 53.7098 32.5534 53.6525 32.4961C53.6239 32.4102 53.5809 32.3242 53.5236 32.2383L53.9963 40.5742C53.9963 40.7174 53.9963 40.9896 53.9963 41.3906C54.0249 41.7917 54.0392 42.2357 54.0392 42.7227C54.0679 43.181 54.0822 43.625 54.0822 44.0547C54.1108 44.4557 54.1252 44.7279 54.1252 44.8711C53.7528 44.8711 53.409 44.7995 53.0939 44.6562C52.7788 44.4844 52.5353 44.2122 52.3634 43.8398ZM66.9677 15.3086C66.9677 15.1654 67.0822 14.9935 67.3114 14.793C67.5406 14.5924 67.7125 14.4922 67.827 14.4922C68.5432 14.9505 69.0015 15.5664 69.202 16.3398C69.4026 17.0846 69.5028 17.8581 69.5028 18.6602C69.5028 18.832 69.5028 19.0469 69.5028 19.3047C69.5315 19.5339 69.5315 19.7773 69.5028 20.0352C69.4742 20.2643 69.3882 20.4792 69.245 20.6797C69.1304 20.8802 68.9299 21.0234 68.6434 21.1094C68.4143 21.0234 68.1994 20.7083 67.9989 20.1641C67.7984 19.6198 67.6122 19.0182 67.4403 18.3594C67.2971 17.7005 67.1825 17.0703 67.0966 16.4688C67.0106 15.8672 66.9677 15.4805 66.9677 15.3086ZM70.6578 21.8828C71.1161 21.224 71.7177 20.6654 72.4625 20.207C73.2359 19.7201 74.081 19.319 74.9977 19.0039C75.943 18.6888 76.9456 18.4453 78.0055 18.2734C79.094 18.1016 80.1539 17.9727 81.1852 17.8867C82.2164 17.8008 83.219 17.7435 84.193 17.7148C85.1669 17.6862 86.0263 17.6719 86.7711 17.6719C86.8284 17.6719 86.9573 17.6862 87.1578 17.7148C87.3583 17.7148 87.5732 17.7292 87.8023 17.7578C88.0315 17.7578 88.232 17.7578 88.4039 17.7578C88.6044 17.7578 88.7477 17.7578 88.8336 17.7578C88.9482 18.388 88.8766 18.832 88.6188 19.0898C88.3896 19.319 88.0745 19.4622 87.6734 19.5195C87.301 19.5482 86.9 19.5339 86.4703 19.4766C86.0406 19.3906 85.7255 19.3763 85.525 19.4336C85.2385 19.4622 84.7802 19.5482 84.15 19.6914C83.5484 19.806 82.8753 19.9492 82.1305 20.1211C81.3857 20.2643 80.5836 20.4362 79.7242 20.6367C78.8935 20.8086 78.0914 20.9805 77.318 21.1523C76.5732 21.2956 75.9 21.4388 75.2984 21.582C74.6969 21.7253 74.2529 21.8255 73.9664 21.8828C73.5081 22.0547 73.2503 22.2695 73.193 22.5273C73.1357 22.7852 73.107 23.0859 73.107 23.4297C73.107 24.0312 73.1357 24.7044 73.193 25.4492C73.2789 26.194 73.3648 26.9388 73.4508 27.6836C73.5654 28.3997 73.6656 29.0586 73.7516 29.6602C73.8661 30.2617 73.9378 30.7057 73.9664 30.9922C74.081 31.0208 74.2958 31.0352 74.6109 31.0352C74.926 31.0352 75.1409 31.0352 75.2555 31.0352C75.9143 31.0352 76.5589 30.9779 77.1891 30.8633C77.8193 30.7487 78.4495 30.6198 79.0797 30.4766C79.7099 30.3333 80.3544 30.2188 81.0133 30.1328C81.6721 30.0182 82.3453 29.9609 83.0328 29.9609V31.5508C82.7464 31.5508 82.3453 31.5794 81.8297 31.6367C81.3141 31.6654 80.7411 31.737 80.1109 31.8516C79.5094 31.9661 78.8935 32.0951 78.2633 32.2383C77.6331 32.3529 77.0602 32.4818 76.5445 32.625C76.0289 32.7682 75.5992 32.9115 75.2555 33.0547C74.9404 33.1979 74.7828 33.3411 74.7828 33.4844V42.4219C76.1292 42.4219 77.4612 42.3789 78.7789 42.293C80.1253 42.207 81.4716 42.1211 82.818 42.0352C84.1643 41.9206 85.5107 41.8203 86.857 41.7344C88.2034 41.6484 89.5497 41.6055 90.8961 41.6055C90.8961 41.9492 90.7815 42.2357 90.5523 42.4648C90.3232 42.6654 90.051 42.8372 89.7359 42.9805C89.4495 43.0951 89.1344 43.181 88.7906 43.2383C88.4469 43.2956 88.1891 43.3385 88.0172 43.3672C87.9026 43.3958 87.5445 43.4388 86.943 43.4961C86.3414 43.5534 85.5966 43.6393 84.7086 43.7539C83.8206 43.8685 82.8323 43.9831 81.7438 44.0977C80.6552 44.2122 79.581 44.3268 78.5211 44.4414C77.4612 44.556 76.4586 44.6706 75.5133 44.7852C74.568 44.8711 73.7802 44.9427 73.15 45C73.0641 45.0286 72.9352 45.043 72.7633 45.043C72.7633 41.2044 72.6344 37.3372 72.3766 33.4414C72.1474 29.5169 71.5745 25.6641 70.6578 21.8828ZM92.3089 41.3047C92.3089 39.6719 92.7529 38.4831 93.6409 37.7383C94.5576 36.9935 95.7464 36.6211 97.2073 36.6211C97.7803 36.6211 98.3102 36.6354 98.7972 36.6641C99.3128 36.6927 99.7998 36.7643 100.258 36.8789C100.716 36.9935 101.16 37.1654 101.59 37.3945C102.048 37.6237 102.521 37.9531 103.008 38.3828C103.008 38.2969 103.008 38.125 103.008 37.8672C103.037 37.5807 103.051 37.2799 103.051 36.9648C103.051 36.6497 103.051 36.3633 103.051 36.1055C103.051 35.819 103.051 35.6185 103.051 35.5039C103.022 34.9883 103.008 34.3294 103.008 33.5273C103.008 32.6966 102.937 31.8516 102.793 30.9922C102.679 30.1328 102.421 29.3164 102.02 28.543C101.647 27.7695 101.032 27.1823 100.172 26.7812C99.5706 26.7812 99.012 26.8815 98.4964 27.082C97.9808 27.2826 97.4652 27.4974 96.9495 27.7266C96.4339 27.9557 95.9183 28.1706 95.4027 28.3711C94.887 28.543 94.3284 28.6289 93.7269 28.6289C93.7269 27.9128 93.9417 27.3255 94.3714 26.8672C94.8297 26.3802 95.374 26.0078 96.0042 25.75C96.6344 25.4922 97.2933 25.3203 97.9808 25.2344C98.6683 25.1484 99.2698 25.1055 99.7855 25.1055C100.301 25.1914 100.774 25.2917 101.203 25.4062C101.662 25.5208 102.077 25.75 102.45 26.0938C102.851 26.4375 103.209 26.9674 103.524 27.6836C103.868 28.3711 104.154 29.3451 104.383 30.6055C104.641 31.8659 104.856 33.4701 105.028 35.418C105.228 37.3372 105.386 39.7005 105.5 42.5078C105.558 42.8802 105.429 43.2096 105.114 43.4961C104.827 43.7539 104.426 43.9831 103.91 44.1836C103.395 44.3555 102.808 44.513 102.149 44.6562C101.519 44.7708 100.874 44.8568 100.215 44.9141C99.5563 44.9714 98.9261 45.0143 98.3245 45.043C97.723 45.0716 97.2217 45.0859 96.8206 45.0859C96.305 45.0859 95.7751 45 95.2308 44.8281C94.7152 44.6562 94.2282 44.4128 93.7698 44.0977C93.3402 43.7539 92.9821 43.3529 92.6956 42.8945C92.4378 42.4076 92.3089 41.8776 92.3089 41.3047ZM97.8948 38.2969C96.4626 38.6979 95.4599 39.1849 94.887 39.7578C94.3141 40.3021 94.0563 40.832 94.1136 41.3477C94.1995 41.8633 94.5433 42.3359 95.1448 42.7656C95.7464 43.1667 96.4769 43.4388 97.3363 43.582C98.1956 43.6966 99.1266 43.625 100.129 43.3672C101.132 43.0807 102.091 42.5365 103.008 41.7344C102.664 40.9036 102.321 40.2734 101.977 39.8438C101.633 39.3854 101.261 39.0417 100.86 38.8125C100.459 38.5833 100.015 38.4401 99.5277 38.3828C99.0407 38.3255 98.4964 38.2969 97.8948 38.2969ZM112.241 29.4023C111.983 29.3164 111.625 29.2878 111.167 29.3164C110.737 29.3164 110.265 29.3451 109.749 29.4023C109.262 29.431 108.789 29.474 108.331 29.5312C107.873 29.5885 107.486 29.6172 107.171 29.6172C107.028 29.6172 106.927 29.4167 106.87 29.0156C106.842 28.5859 106.784 28.013 106.698 27.2969L112.757 26.8672C112.843 25.8646 112.9 25.1484 112.929 24.7188C112.957 24.2891 112.957 23.931 112.929 23.6445C112.929 23.3294 112.914 22.9857 112.886 22.6133C112.886 22.2122 112.886 21.5964 112.886 20.7656C113.631 20.651 114.189 20.6224 114.562 20.6797C114.963 20.7083 115.235 20.8086 115.378 20.9805C115.521 21.1523 115.578 21.4102 115.55 21.7539C115.55 22.069 115.507 22.4701 115.421 22.957C115.364 23.444 115.306 24.0312 115.249 24.7188C115.22 25.4062 115.249 26.1797 115.335 27.0391L120.491 26.8672V28.9727C120.262 28.9727 119.904 28.987 119.417 29.0156C118.93 29.0443 118.4 29.0729 117.827 29.1016C117.283 29.1302 116.767 29.1589 116.28 29.1875C115.822 29.2161 115.478 29.2734 115.249 29.3594C115.02 30.3906 114.776 31.4935 114.519 32.668C114.261 33.8424 114.089 35.0026 114.003 36.1484C113.917 37.2943 113.946 38.3685 114.089 39.3711C114.232 40.3451 114.59 41.1615 115.163 41.8203C115.736 42.4505 116.552 42.8945 117.612 43.1523C118.672 43.3815 120.076 43.2956 121.823 42.8945C121.766 43.3242 121.594 43.6823 121.308 43.9688C121.05 44.2266 120.735 44.4414 120.362 44.6133C120.019 44.7565 119.646 44.8711 119.245 44.957C118.844 45.0143 118.486 45.043 118.171 45.043C116.71 45.043 115.55 44.7852 114.69 44.2695C113.831 43.7253 113.187 43.0234 112.757 42.1641C112.327 41.3047 112.055 40.3307 111.94 39.2422C111.826 38.125 111.783 36.9935 111.812 35.8477C111.869 34.7018 111.955 33.5703 112.069 32.4531C112.184 31.3359 112.241 30.319 112.241 29.4023Z" fill="#FEFDFD"/>
</svg>
