<svg width="23" height="22" viewBox="0 0 23 22" fill="none" xmlns="http://www.w3.org/2000/svg">
<path d="M11.275 0C5.05846 0 0 4.93402 0 11C0 17.066 5.05846 22 11.275 22C17.4915 22 22.55 17.066 22.55 11C22.55 4.93402 17.4915 0 11.275 0ZM11.275 21.2673C5.47261 21.2673 0.75237 16.6612 0.75237 11C0.75237 5.33878 5.47261 0.732693 11.275 0.732693C17.0774 0.732693 21.7976 5.33878 21.7976 11C21.7976 16.6612 17.0774 21.2673 11.275 21.2673Z" fill="black"/>
<path d="M13.7355 4.82555H11.8594C9.47011 4.80223 9.16493 6.24498 9.16493 7.80643V8.94184H8.11019C8.06252 8.93562 8.01402 8.94022 7.96847 8.95526C7.92291 8.9703 7.88152 8.99538 7.84751 9.02857C7.8135 9.06175 7.78779 9.10213 7.77237 9.14658C7.75695 9.19103 7.75225 9.23835 7.75861 9.28486V11.343C7.75225 11.3895 7.75695 11.4368 7.77237 11.4813C7.78779 11.5257 7.8135 11.5661 7.84751 11.5993C7.88152 11.6325 7.92291 11.6576 7.96847 11.6726C8.01402 11.6876 8.06252 11.6922 8.11019 11.686H9.16493V16.8314C9.15908 16.878 9.16421 16.9253 9.17994 16.9696C9.19568 17.014 9.2216 17.0543 9.25573 17.0874C9.28985 17.1204 9.33128 17.1455 9.37684 17.1606C9.42241 17.1757 9.4709 17.1804 9.51862 17.1744H11.6668C11.8742 17.1977 12.0423 17.0338 11.9762 16.8314L11.9776 11.686H13.7355C13.7831 11.6922 13.8316 11.6876 13.8772 11.6726C13.9228 11.6576 13.9642 11.6325 13.9982 11.5993C14.0322 11.5661 14.0579 11.5257 14.0733 11.4813C14.0887 11.4368 14.0934 11.3895 14.0871 11.343V9.28486C14.0934 9.23835 14.0887 9.19103 14.0733 9.14658C14.0579 9.10213 14.0322 9.06175 13.9982 9.02857C13.9642 8.99538 13.9228 8.9703 13.8772 8.95526C13.8316 8.94022 13.7831 8.93562 13.7355 8.94184H11.9755L11.9776 7.91276C12.0458 7.47438 12.0458 7.54573 12.4628 7.56974H13.7207C13.8184 7.54847 13.9225 7.56014 13.9956 7.49085C14.0688 7.42156 14.111 7.32688 14.0864 7.22672V5.16858C14.0928 5.1221 14.0882 5.07479 14.0729 5.03034C14.0576 4.98588 14.0319 4.94548 13.998 4.91228C13.964 4.87908 13.9227 4.85398 13.8771 4.83894C13.8316 4.82389 13.7831 4.81931 13.7355 4.82555V4.82555ZM13.3593 6.84528L12.4775 6.81235C11.3855 6.81235 11.2941 7.39068 11.2941 7.98274L11.2913 9.28349C11.2912 9.33165 11.3008 9.37937 11.3197 9.42389C11.3385 9.46842 11.3661 9.50889 11.401 9.54298C11.4359 9.57707 11.4773 9.60412 11.5229 9.62257C11.5685 9.64102 11.6174 9.65052 11.6668 9.65052H13.3839V10.976H11.6682C11.5685 10.976 11.473 11.0145 11.4024 11.0832C11.3319 11.1519 11.2922 11.2451 11.292 11.3423L11.2913 16.4884H9.86809V11.343C9.86809 11.1406 9.72676 10.9767 9.51862 10.9767H8.46177V9.65121H9.51862C9.56796 9.65128 9.61683 9.64187 9.66244 9.6235C9.70804 9.60514 9.74949 9.57819 9.78442 9.54419C9.85473 9.47489 9.86739 9.38159 9.86739 9.28417V7.80574C9.86739 6.26762 10.1859 5.53493 11.8587 5.53493H13.3586V6.84528H13.3593Z" fill="black"/>
</svg>
