<svg width="34" height="32" viewBox="0 0 34 32" fill="none" xmlns="http://www.w3.org/2000/svg">
<path d="M25.4767 31.7208C25.033 31.7204 24.5995 31.5875 24.2317 31.3393L16.7414 26.3198C16.7045 26.2943 16.6607 26.2807 16.6159 26.2807C16.5711 26.2807 16.5273 26.2943 16.4904 26.3198L9.00012 31.3393C8.62399 31.5904 8.18037 31.7212 7.72816 31.7142C7.27594 31.7073 6.83654 31.563 6.46829 31.3005C6.10004 31.0379 5.82038 30.6696 5.66644 30.2444C5.5125 29.8192 5.49156 29.3573 5.60641 28.9199L8.06635 20.2462C8.07798 20.2026 8.07657 20.1566 8.06229 20.1137C8.04802 20.0709 8.0215 20.0332 7.98602 20.0053L0.897374 14.4337C0.524204 14.1557 0.247395 13.768 0.105759 13.3248C-0.0358763 12.8816 -0.0352355 12.4052 0.107592 11.9624C0.250419 11.5196 0.528271 11.1326 0.902187 10.8556C1.2761 10.5787 1.72733 10.4257 2.19261 10.4181L11.2291 10.0768C11.2736 10.0737 11.3162 10.0579 11.3518 10.0311C11.3874 10.0044 11.4146 9.96797 11.4299 9.92618L14.5425 1.46333C14.6994 1.03431 14.9844 0.663846 15.3588 0.402109C15.7333 0.140371 16.1791 0 16.636 0C17.0929 0 17.5387 0.140371 17.9132 0.402109C18.2876 0.663846 18.5726 1.03431 18.7294 1.46333L21.842 9.92618C21.8574 9.96797 21.8846 10.0044 21.9202 10.0311C21.9558 10.0579 21.9984 10.0737 22.0428 10.0768L31.0794 10.4181C31.5446 10.4257 31.9959 10.5787 32.3698 10.8556C32.7437 11.1326 33.0216 11.5196 33.1644 11.9624C33.3072 12.4052 33.3078 12.8816 33.1662 13.3248C33.0246 13.768 32.7478 14.1557 32.3746 14.4337L25.2859 20.0053C25.2494 20.0323 25.2221 20.07 25.2077 20.1131C25.1933 20.1562 25.1926 20.2027 25.2056 20.2462L27.6656 28.9199C27.7519 29.2526 27.7605 29.6007 27.6906 29.9372C27.6207 30.2738 27.4743 30.5897 27.2626 30.8606C27.051 31.1314 26.7798 31.3499 26.4701 31.499C26.1604 31.6482 25.8205 31.7241 25.4767 31.7208ZM16.6209 24.2719C17.0656 24.2855 17.4958 24.4324 17.8559 24.6935L25.3462 29.713C25.3841 29.7418 25.4304 29.7576 25.4781 29.758C25.5258 29.7584 25.5723 29.7433 25.6107 29.7151C25.6491 29.6868 25.6774 29.6469 25.6912 29.6013C25.7051 29.5557 25.7038 29.5068 25.6876 29.462L23.2276 20.7883C23.1066 20.3629 23.1155 19.9109 23.2533 19.4905C23.391 19.0702 23.6513 18.7006 24.0008 18.4292L31.0894 12.8576C31.1281 12.8304 31.157 12.7916 31.172 12.7467C31.1869 12.7019 31.1871 12.6535 31.1725 12.6086C31.1579 12.5636 31.1293 12.5246 31.0908 12.4971C31.0524 12.4696 31.0061 12.4552 30.9589 12.456L21.9224 12.1147C21.4799 12.0974 21.0526 11.9488 20.6949 11.6878C20.3373 11.4267 20.0655 11.0651 19.9142 10.649L16.8017 2.18614C16.7876 2.1412 16.7596 2.10193 16.7217 2.07404C16.6837 2.04615 16.6379 2.03111 16.5908 2.03111C16.5437 2.03111 16.4979 2.04615 16.4599 2.07404C16.422 2.10193 16.394 2.1412 16.38 2.18614L13.2975 10.6389C13.1462 11.0551 12.8745 11.4167 12.5168 11.6777C12.1592 11.9388 11.7318 12.0874 11.2894 12.1046L2.25285 12.446C2.2056 12.4452 2.15936 12.4596 2.1209 12.4871C2.08245 12.5145 2.05382 12.5536 2.03921 12.5985C2.02461 12.6435 2.0248 12.6919 2.03976 12.7367C2.05472 12.7815 2.08366 12.8204 2.12233 12.8475L9.22102 18.4292C9.56937 18.7014 9.82887 19.0711 9.96654 19.4912C10.1042 19.9113 10.1138 20.3628 9.99414 20.7883L7.54424 29.462C7.52962 29.5054 7.52955 29.5525 7.54404 29.5959C7.55854 29.6394 7.5868 29.677 7.62456 29.7029C7.66094 29.7341 7.70723 29.7512 7.75509 29.7512C7.80296 29.7512 7.84925 29.7341 7.88562 29.7029L15.3759 24.6835C15.742 24.4407 16.1716 24.3115 16.6109 24.312L16.6209 24.2719Z" fill="#FFD741"/>
</svg>
