<svg width="16" height="16" viewBox="0 0 16 16" fill="none" xmlns="http://www.w3.org/2000/svg">
<path d="M6 5.004L5.999 8.997C5.99905 9.08744 6.02362 9.17618 6.07011 9.25376C6.1166 9.33134 6.18327 9.39485 6.263 9.43754C6.34273 9.48023 6.43255 9.50049 6.52289 9.49617C6.61323 9.49185 6.70071 9.46311 6.776 9.413L9.774 7.417C9.84248 7.37134 9.89863 7.30948 9.93746 7.23691C9.97629 7.16434 9.99661 7.08331 9.99661 7.001C9.99661 6.91869 9.97629 6.83766 9.93746 6.76509C9.89863 6.69252 9.84248 6.63066 9.774 6.585L6.777 4.588C6.70171 4.53789 6.61423 4.50915 6.52389 4.50483C6.43355 4.50051 6.34373 4.52077 6.264 4.56346C6.18427 4.60615 6.1176 4.66966 6.07111 4.74724C6.02462 4.82482 6.00005 4.91356 6 5.004ZM2 4.25C2 3.65326 2.23705 3.08097 2.65901 2.65901C3.08097 2.23705 3.65326 2 4.25 2H10.75C11.3467 2 11.919 2.23705 12.341 2.65901C12.7629 3.08097 13 3.65326 13 4.25V9.75C13 10.3467 12.7629 10.919 12.341 11.341C11.919 11.7629 11.3467 12 10.75 12H4.25C3.65326 12 3.08097 11.7629 2.65901 11.341C2.23705 10.919 2 10.3467 2 9.75V4.25ZM4.25 3C3.56 3 3 3.56 3 4.25V9.75C3 10.44 3.56 11 4.25 11H10.75C11.44 11 12 10.44 12 9.75V4.25C12 3.56 11.44 3 10.75 3H4.25ZM4 13C4.456 13.607 5.182 14 6 14H11.25C12.2446 14 13.1984 13.6049 13.9017 12.9017C14.6049 12.1984 15 11.2446 15 10.25V6C15 5.182 14.607 4.456 14 4V10.25C14 10.9793 13.7103 11.6788 13.1945 12.1945C12.6788 12.7103 11.9793 13 11.25 13H4Z" fill="black"/>
</svg>
