<svg width="32" height="30" viewBox="0 0 32 30" fill="none" xmlns="http://www.w3.org/2000/svg">
<path d="M5.63655 20.3642C7.5857 20.3642 9.17154 18.7047 9.17154 16.6651C9.17154 14.6257 7.5857 12.9666 5.63655 12.9666C3.68741 12.9666 2.10156 14.626 2.10156 16.6651C2.10156 18.705 3.68741 20.3642 5.63655 20.3642ZM5.63655 14.0825C6.9977 14.0825 8.10481 15.2411 8.10481 16.6651C8.10481 18.0894 6.99764 19.2479 5.63655 19.2479C4.27547 19.2479 3.1683 18.0894 3.1683 16.6651C3.1683 15.241 4.27547 14.0825 5.63655 14.0825Z" fill="#519259"/>
<path d="M5.63598 21.3787C2.52834 21.3787 0 24.0246 0 27.2763C0 28.2768 0.778038 29.0909 1.73411 29.0909H9.53798C10.4941 29.0909 11.2716 28.2767 11.2716 27.2763C11.2716 24.0246 8.74337 21.3787 5.63566 21.3787H5.63598ZM9.5383 27.9746H1.73443C1.36637 27.9746 1.06699 27.6614 1.06699 27.2762C1.06699 24.6399 3.11685 22.4949 5.63624 22.4949C8.15562 22.4949 10.2055 24.6399 10.2055 27.2762C10.2055 27.6613 9.90613 27.9746 9.53855 27.9746H9.5383Z" fill="#519259"/>
<path d="M15.9998 13.4631C17.9489 13.4631 19.5348 11.8036 19.5348 9.76453C19.5348 7.7249 17.9489 6.06543 15.9998 6.06543C14.0507 6.06543 12.4648 7.7249 12.4648 9.76453C12.4648 11.8039 14.0507 13.4631 15.9998 13.4631ZM15.9998 7.18142C17.3609 7.18142 18.468 8.34 18.468 9.76427C18.468 11.1881 17.3609 12.3468 15.9998 12.3468C14.6387 12.3468 13.5316 11.1883 13.5316 9.76427C13.5316 8.33993 14.6387 7.18142 15.9998 7.18142Z" fill="#519259"/>
<path d="M21.6352 20.3761C21.6352 17.1242 19.107 14.4783 15.9993 14.4783C12.8916 14.4783 10.3633 17.1239 10.3633 20.3761C10.3633 21.3767 11.1413 22.1908 12.0969 22.1908H19.9008C20.8574 22.1905 21.6349 21.3766 21.6349 20.3761H21.6352ZM19.9016 21.0746H12.0971C11.729 21.0746 11.4301 20.7613 11.4301 20.3761C11.4301 17.7398 13.48 15.5943 15.9994 15.5943C18.5188 15.5943 20.5686 17.7395 20.5686 20.3761C20.5686 20.7613 20.2693 21.0746 19.9017 21.0746H19.9016Z" fill="#519259"/>
<path d="M26.3631 20.3642C28.3123 20.3642 29.8982 18.7047 29.8982 16.6651C29.8982 14.6257 28.3123 12.9666 26.3631 12.9666C24.414 12.9666 22.8281 14.626 22.8281 16.6651C22.8281 18.705 24.414 20.3642 26.3631 20.3642ZM26.3631 14.0825C27.7243 14.0825 28.8314 15.2411 28.8314 16.6651C28.8314 18.0894 27.7242 19.2479 26.3631 19.2479C25.0021 19.2479 23.8949 18.0894 23.8949 16.6651C23.8949 15.241 25.0021 14.0825 26.3631 14.0825Z" fill="#519259"/>
<path d="M26.3645 21.3787C23.2569 21.3787 20.7285 24.024 20.7285 27.2763C20.7285 28.2768 21.5066 29.0909 22.4622 29.0909H30.2661C31.2222 29.0909 32.0002 28.2767 32.0002 27.2763C32.0002 24.0246 29.4719 21.3787 26.3642 21.3787H26.3645ZM30.2663 27.9746H22.4624C22.0944 27.9746 21.7955 27.6614 21.7955 27.2762C21.7955 24.6399 23.8454 22.4949 26.3648 22.4949C28.8841 22.4949 30.934 24.6399 30.934 27.2762C30.934 27.6613 30.6346 27.9746 30.2666 27.9746H30.2663Z" fill="#519259"/>
<path d="M16 4.0074C16.2947 4.0074 16.5333 3.75748 16.5333 3.44942V0.557983C16.5333 0.249924 16.2947 0 16 0C15.7054 0 15.4668 0.249924 15.4668 0.557983V3.44942C15.4668 3.75722 15.7054 4.0074 16 4.0074Z" fill="#519259"/>
<path d="M24.2227 7.57182C24.3593 7.57182 24.4958 7.51758 24.5999 7.40858L26.5538 5.36409C26.7621 5.1461 26.7621 4.79288 26.5538 4.57488C26.3454 4.35687 26.0079 4.35688 25.7995 4.57488L23.8457 6.61937C23.6374 6.83737 23.6374 7.19058 23.8457 7.40858C23.9496 7.51732 24.086 7.57182 24.2227 7.57182H24.2227Z" fill="#519259"/>
<path d="M7.39895 7.40857C7.50312 7.51757 7.63978 7.57181 7.77619 7.57181C7.91285 7.57181 8.04926 7.51757 8.15343 7.40857C8.36176 7.19056 8.36176 6.83733 8.15343 6.61932L6.19955 4.57476C5.99122 4.35675 5.65366 4.35675 5.44532 4.57476C5.23698 4.79276 5.23698 5.14599 5.44532 5.364L7.39895 7.40857Z" fill="#519259"/>
<path d="M11.0571 4.58879C11.1422 4.80342 11.3408 4.93344 11.5499 4.93344C11.6179 4.93344 11.6871 4.91995 11.754 4.89114C12.0261 4.77332 12.1551 4.44683 12.0427 4.16184L10.9852 1.49053C10.8726 1.20557 10.5603 1.0701 10.2882 1.18844C10.0162 1.30626 9.8872 1.63275 9.99955 1.91774L11.0571 4.58879Z" fill="#519259"/>
<path d="M20.2473 4.891C20.3143 4.92006 20.3832 4.9333 20.4514 4.9333C20.6605 4.9333 20.8592 4.80354 20.9442 4.58865L22.0017 1.91737C22.1143 1.63241 21.9854 1.30619 21.7131 1.18807C21.4402 1.06973 21.129 1.2052 21.0161 1.49016L19.9586 4.16145C19.846 4.44641 19.9755 4.77262 20.2473 4.89094L20.2473 4.891Z" fill="#519259"/>
</svg>
