<svg width="32" height="32" viewBox="0 0 32 32" fill="none" xmlns="http://www.w3.org/2000/svg">
<path d="M31.5509 12.7922L18.566 1.00828C17.8394 0.358078 16.9254 0 15.9941 0C15.0615 0 14.151 0.358634 13.4305 1.01045L0.429194 12.7957C0.0419603 13.1538 -0.102147 13.7279 0.0749668 14.2968C0.273509 14.8168 0.731685 15.1529 1.2421 15.1529H2.31711V27.7036C2.31711 30.0727 4.10817 32 6.30989 32H25.6734C27.8752 32 29.6662 30.0727 29.6662 27.7036L29.666 15.1529H30.7562C31.2765 15.1529 31.744 14.7977 31.9123 14.2862C32.1111 13.738 31.9648 13.148 31.5509 12.7922ZM20.6489 30.8128H11.3354V21.4934C11.3354 20.7115 11.9567 20.0506 12.6923 20.0506H19.308C20.0475 20.0506 20.6488 20.6979 20.6488 21.4934L20.6489 30.8128ZM30.8787 13.8725C30.8639 13.917 30.824 13.965 30.7568 13.965H29.1147C28.8095 13.965 28.5629 14.2311 28.5629 14.5587V27.7032C28.5629 29.4173 27.2667 30.8121 25.6737 30.8121H21.7521L21.7523 21.4934C21.7523 20.0429 20.6559 18.8631 19.308 18.8631H12.6922C11.3354 18.8631 10.2318 20.0429 10.2318 21.4934V30.8127H6.31093C4.71737 30.8127 3.42172 29.418 3.42172 27.7038V14.5594C3.42172 14.2318 3.17514 13.9657 2.86993 13.9657H1.24264C1.16825 13.9657 1.11799 13.9039 1.10962 13.8838C1.08646 13.8095 1.10026 13.7411 1.14435 13.7003L14.1419 1.91912C14.6629 1.44758 15.3211 1.18757 15.9943 1.18757C16.6692 1.18757 17.3319 1.44759 17.8576 1.91838L30.8513 13.7098C30.8824 13.7368 30.9136 13.7776 30.8794 13.8733L30.8787 13.8725Z" fill="#519259"/>
</svg>
