<svg width="16" height="16" viewBox="0 0 16 16" fill="none" xmlns="http://www.w3.org/2000/svg">
<path d="M13.334 2.66668V10.6667H5.33398V2.66668H13.334ZM13.334 1.33334H5.33398C4.60065 1.33334 4.00065 1.93334 4.00065 2.66668V10.6667C4.00065 11.4 4.60065 12 5.33398 12H13.334C14.0673 12 14.6673 11.4 14.6673 10.6667V2.66668C14.6673 1.93334 14.0673 1.33334 13.334 1.33334ZM7.66732 7.78001L8.79398 9.28668L10.4473 7.22001L12.6673 10H6.00065L7.66732 7.78001ZM1.33398 4.00001V13.3333C1.33398 14.0667 1.93398 14.6667 2.66732 14.6667H12.0007V13.3333H2.66732V4.00001H1.33398Z" fill="black"/>
</svg>
