<svg width="18" height="18" viewBox="0 0 18 18" fill="none" xmlns="http://www.w3.org/2000/svg">
<path d="M9 4.77551C8.16447 4.77551 7.34771 5.02327 6.653 5.48746C5.95829 5.95166 5.41682 6.61143 5.09708 7.38336C4.77734 8.15528 4.69368 9.00469 4.85668 9.82416C5.01969 10.6436 5.42203 11.3964 6.01283 11.9872C6.60364 12.578 7.35637 12.9803 8.17584 13.1433C8.99531 13.3063 9.84472 13.2227 10.6166 12.9029C11.3886 12.5832 12.0483 12.0417 12.5125 11.347C12.9767 10.6523 13.2245 9.83553 13.2245 9C13.2245 7.8796 12.7794 6.80508 11.9872 6.01283C11.1949 5.22059 10.1204 4.77551 9 4.77551V4.77551ZM9 12.1224C8.38244 12.1224 7.77874 11.9393 7.26526 11.5962C6.75178 11.2531 6.35156 10.7655 6.11523 10.1949C5.8789 9.62436 5.81707 8.99654 5.93755 8.39084C6.05803 7.78514 6.35541 7.22878 6.79209 6.79209C7.22878 6.35541 7.78514 6.05803 8.39084 5.93755C8.99654 5.81707 9.62436 5.8789 10.1949 6.11523C10.7655 6.35156 11.2531 6.75178 11.5962 7.26526C11.9393 7.77874 12.1224 8.38244 12.1224 9C12.12 9.82738 11.7903 10.6202 11.2052 11.2052C10.6202 11.7903 9.82738 12.12 9 12.1224ZM13.0408 0H4.95918C3.64393 0 2.38254 0.522484 1.45251 1.45251C0.522484 2.38254 0 3.64393 0 4.95918V13.0408C0 14.3561 0.522484 15.6175 1.45251 16.5475C2.38254 17.4775 3.64393 18 4.95918 18H13.0408C14.3561 18 15.6175 17.4775 16.5475 16.5475C17.4775 15.6175 18 14.3561 18 13.0408V4.95918C18 3.64393 17.4775 2.38254 16.5475 1.45251C15.6175 0.522484 14.3561 0 13.0408 0V0ZM16.898 13.0408C16.898 14.0638 16.4916 15.0449 15.7682 15.7682C15.0449 16.4916 14.0638 16.898 13.0408 16.898H4.95918C3.93621 16.898 2.95513 16.4916 2.23177 15.7682C1.50842 15.0449 1.10204 14.0638 1.10204 13.0408V4.95918C1.10204 3.93621 1.50842 2.95513 2.23177 2.23177C2.95513 1.50842 3.93621 1.10204 4.95918 1.10204H13.0408C14.0638 1.10204 15.0449 1.50842 15.7682 2.23177C16.4916 2.95513 16.898 3.93621 16.898 4.95918V13.0408ZM14.6939 4.22449C14.6939 4.40613 14.64 4.58368 14.5391 4.73471C14.4382 4.88573 14.2948 5.00344 14.127 5.07295C13.9591 5.14246 13.7745 5.16065 13.5963 5.12521C13.4182 5.08978 13.2546 5.00231 13.1261 4.87387C12.9977 4.74544 12.9102 4.5818 12.8748 4.40365C12.8394 4.22551 12.8575 4.04086 12.927 3.87305C12.9966 3.70524 13.1143 3.56181 13.2653 3.4609C13.4163 3.35998 13.5939 3.30612 13.7755 3.30612C14.0191 3.30612 14.2527 3.40288 14.4249 3.57511C14.5971 3.74733 14.6939 3.98092 14.6939 4.22449Z" fill="black"/>
</svg>
