<svg width="30" height="31" viewBox="0 0 30 31" fill="none" xmlns="http://www.w3.org/2000/svg">
<path d="M24.1996 10.1578C25.3533 10.1578 26.4597 9.67543 27.2755 8.81671C28.0912 7.958 28.5495 6.79333 28.5495 5.57892C28.5495 4.36452 28.0912 3.19985 27.2755 2.34114C26.4597 1.48242 25.3533 1 24.1996 1C23.0459 1 21.9395 1.48242 21.1237 2.34114C20.3079 3.19985 19.8496 4.36452 19.8496 5.57892C19.8496 6.79333 20.3079 7.958 21.1237 8.81671C21.9395 9.67543 23.0459 10.1578 24.1996 10.1578Z" fill="#FF0000" stroke="#FF0000" stroke-width="1.5" stroke-linecap="round" stroke-linejoin="round"/>
<path d="M27.0998 16.2632V20.8421C27.0998 23.271 26.1832 25.6003 24.5517 27.3177C22.9201 29.0352 20.7072 30 18.3999 30H9.69994C7.39257 30 5.17971 29.0352 3.54815 27.3177C1.9166 25.6003 1 23.271 1 20.8421V11.6843C1 9.25543 1.9166 6.92609 3.54815 5.20865C5.17971 3.49121 7.39257 2.52637 9.69994 2.52637H14.0499" stroke="#FEFDFD" stroke-width="1.5" stroke-linecap="round" stroke-linejoin="round"/>
</svg>
