<svg width="32" height="32" viewBox="0 0 32 32" fill="none" xmlns="http://www.w3.org/2000/svg">
<path d="M16 1C7.7155 1 1 7.7155 1 16C1 24.2845 7.7155 31 16 31C24.2845 31 31 24.2845 31 16C31 7.7155 24.2845 1 16 1Z" stroke="white" stroke-width="1.5" stroke-linecap="round" stroke-linejoin="round"/>
<path d="M4.40625 25.519C4.40625 25.519 7.74974 21.2499 15.9997 21.2499C24.2497 21.2499 27.5947 25.519 27.5947 25.519" stroke="white" stroke-width="1.5" stroke-linecap="round" stroke-linejoin="round"/>
<path d="M16 16C17.1935 16 18.3381 15.5259 19.182 14.682C20.0259 13.838 20.5 12.6935 20.5 11.5C20.5 10.3065 20.0259 9.16193 19.182 8.31802C18.3381 7.4741 17.1935 7 16 7C14.8065 7 13.6619 7.4741 12.818 8.31802C11.9741 9.16193 11.5 10.3065 11.5 11.5C11.5 12.6935 11.9741 13.838 12.818 14.682C13.6619 15.5259 14.8065 16 16 16V16Z" stroke="white" stroke-width="1.5" stroke-linecap="round" stroke-linejoin="round"/>
</svg>
