<svg width="31" height="31" viewBox="0 0 31 31" fill="none" xmlns="http://www.w3.org/2000/svg">
<path d="M15.5 1C7.49165 1 1 7.49165 1 15.5C1 23.5084 7.49165 30 15.5 30C23.5084 30 30 23.5084 30 15.5C30 7.49165 23.5084 1 15.5 1Z" stroke="#519259" stroke-width="1.5" stroke-linecap="round" stroke-linejoin="round"/>
<path d="M4.29297 24.7017C4.29297 24.7017 7.52501 20.575 15.5 20.575C23.475 20.575 26.7084 24.7017 26.7084 24.7017" stroke="#519259" stroke-width="1.5" stroke-linecap="round" stroke-linejoin="round"/>
<path d="M15.5004 15.5C16.6541 15.5 17.7605 15.0417 18.5763 14.2259C19.3921 13.4102 19.8504 12.3037 19.8504 11.15C19.8504 9.99635 19.3921 8.88991 18.5763 8.07413C17.7605 7.25835 16.6541 6.80005 15.5004 6.80005C14.3467 6.80005 13.2403 7.25835 12.4245 8.07413C11.6087 8.88991 11.1504 9.99635 11.1504 11.15C11.1504 12.3037 11.6087 13.4102 12.4245 14.2259C13.2403 15.0417 14.3467 15.5 15.5004 15.5V15.5Z" stroke="#519259" stroke-width="1.5" stroke-linecap="round" stroke-linejoin="round"/>
</svg>
