<svg width="28" height="29" viewBox="0 0 28 29" fill="none" xmlns="http://www.w3.org/2000/svg">
<path d="M0.041057 10.0363C0.670779 8.09047 1.70549 6.30006 3.07709 4.78296C3.19051 4.65762 3.33861 4.56881 3.50261 4.52781C3.6666 4.48682 3.83907 4.49548 3.99813 4.5527L7.26954 5.72276C7.50243 5.80593 7.75062 5.83745 7.99691 5.81516C8.24319 5.79286 8.48169 5.71727 8.69586 5.59364C8.91003 5.47001 9.09475 5.30128 9.23723 5.09915C9.3797 4.89703 9.47652 4.66634 9.52098 4.42307L10.1452 1.00157C10.1754 0.835009 10.2544 0.681192 10.3723 0.559695C10.4901 0.438199 10.6415 0.35452 10.807 0.319312C12.8058 -0.106437 14.8718 -0.106437 16.8706 0.319312C17.0358 0.354821 17.1868 0.438633 17.3043 0.560106C17.4218 0.681579 17.5006 0.835235 17.5306 1.00157L18.1566 4.42307C18.2011 4.66634 18.2979 4.89703 18.4404 5.09915C18.5828 5.30128 18.7676 5.47001 18.9817 5.59364C19.1959 5.71727 19.4344 5.79286 19.6807 5.81516C19.927 5.83745 20.1752 5.80593 20.408 5.72276L23.6795 4.5527C23.8387 4.49568 24.0113 4.48729 24.1753 4.52859C24.3393 4.5699 24.4873 4.65903 24.6005 4.78466C25.9719 6.30127 27.0066 8.09107 27.6365 10.0363C27.6885 10.197 27.6916 10.3695 27.6455 10.5319C27.5993 10.6944 27.506 10.8395 27.3773 10.9488L24.725 13.2003C24.5366 13.3604 24.3853 13.5596 24.2815 13.784C24.1777 14.0084 24.1239 14.2527 24.1239 14.5C24.1239 14.7472 24.1777 14.9915 24.2815 15.2159C24.3853 15.4404 24.5366 15.6395 24.725 15.7997L27.3773 18.0511C27.506 18.1604 27.5993 18.3055 27.6455 18.468C27.6916 18.6304 27.6885 18.8029 27.6365 18.9636C27.0068 20.9095 25.9721 22.6999 24.6005 24.217C24.4871 24.3423 24.339 24.4311 24.175 24.4721C24.011 24.5131 23.8385 24.5044 23.6795 24.4472L20.408 23.2772C20.1752 23.194 19.927 23.1625 19.6807 23.1848C19.4344 23.2071 19.1959 23.2826 18.9817 23.4063C18.7676 23.5299 18.5828 23.6986 18.4404 23.9008C18.2979 24.1029 18.2011 24.3336 18.1566 24.5769L17.5306 28.0001C17.5003 28.1661 17.4214 28.3194 17.3039 28.4405C17.1864 28.5617 17.0356 28.6452 16.8706 28.6806C14.8718 29.1065 12.8058 29.1065 10.807 28.6806C10.6415 28.6454 10.4901 28.5617 10.3723 28.4402C10.2544 28.3187 10.1754 28.1649 10.1452 27.9984L9.52268 24.5769C9.47823 24.3336 9.38141 24.1029 9.23893 23.9008C9.09646 23.6986 8.91173 23.5299 8.69756 23.4063C8.48339 23.2826 8.2449 23.2071 7.99861 23.1848C7.75233 23.1625 7.50414 23.194 7.27124 23.2772L3.99813 24.4472C3.83891 24.5042 3.66633 24.5126 3.50233 24.4713C3.33833 24.43 3.19031 24.3409 3.07709 24.2153C1.70566 22.6987 0.67095 20.9089 0.041057 18.9636C-0.0107419 18.8028 -0.013591 18.6302 0.032871 18.4677C0.0793329 18.3052 0.173011 18.1602 0.302019 18.0511L2.95258 15.7997C3.14099 15.6395 3.29233 15.4404 3.39613 15.2159C3.49992 14.9915 3.55368 14.7472 3.55368 14.5C3.55368 14.2527 3.49992 14.0084 3.39613 13.784C3.29233 13.5596 3.14099 13.3604 2.95258 13.2003L0.302019 10.9488C0.173011 10.8397 0.0793329 10.6947 0.032871 10.5322C-0.013591 10.3698 -0.0107419 10.1972 0.041057 10.0363V10.0363ZM1.85074 10.0261L4.05783 11.8989C4.43524 12.2191 4.73844 12.6176 4.94639 13.0668C5.15433 13.516 5.26205 14.005 5.26205 14.5C5.26205 14.9949 5.15433 15.484 4.94639 15.9331C4.73844 16.3823 4.43524 16.7808 4.05783 17.1011L1.84903 18.9738C2.34708 20.3076 3.06685 21.5494 3.97255 22.6444L6.69474 21.6722C7.16064 21.5058 7.65714 21.4428 8.14982 21.4875C8.6425 21.5322 9.11956 21.6835 9.54792 21.931C9.97629 22.1784 10.3457 22.5161 10.6306 22.9205C10.9154 23.325 11.1089 23.7866 11.1976 24.2733L11.7178 27.1183C13.121 27.3522 14.5532 27.3522 15.9563 27.1183L16.4766 24.2698C16.5649 23.783 16.7582 23.3213 17.0431 22.9167C17.3279 22.5121 17.6974 22.1744 18.1259 21.9271C18.5544 21.6797 19.0316 21.5286 19.5244 21.4843C20.0172 21.44 20.5137 21.5035 20.9794 21.6705L23.7033 22.6444C24.6107 21.5477 25.3284 20.3071 25.8269 18.9738L23.6198 17.1011C23.2418 16.7811 22.9382 16.3827 22.7299 15.9335C22.5216 15.4843 22.4137 14.9951 22.4137 14.5C22.4137 14.0048 22.5216 13.5156 22.7299 13.0664C22.9382 12.6172 23.2418 12.2188 23.6198 11.8989L25.8269 10.0261C25.3284 8.69283 24.6107 7.45224 23.7033 6.35555L20.9811 7.32777C20.5154 7.49409 20.019 7.55714 19.5264 7.51255C19.0338 7.46796 18.5568 7.31679 18.1285 7.06952C17.7002 6.82225 17.3307 6.4848 17.0458 6.08054C16.7608 5.67629 16.5672 5.21491 16.4783 4.72838L15.9563 1.88167C14.5532 1.64773 13.121 1.64773 11.7178 1.88167L11.1993 4.72838C11.1107 5.21527 10.9172 5.67704 10.6322 6.08165C10.3472 6.48626 9.97761 6.82402 9.54904 7.07149C9.12047 7.31896 8.64318 7.47022 8.1503 7.51477C7.65741 7.55932 7.16074 7.49609 6.69474 7.32947L3.97255 6.35555C3.0652 7.45224 2.34748 8.69283 1.84903 10.0261H1.85074ZM9.57556 14.5C9.57556 13.3691 10.0248 12.2845 10.8245 11.4848C11.6242 10.6851 12.7087 10.2359 13.8396 10.2359C14.9706 10.2359 16.0551 10.6851 16.8548 11.4848C17.6545 12.2845 18.1037 13.3691 18.1037 14.5C18.1037 15.6309 17.6545 16.7155 16.8548 17.5151C16.0551 18.3148 14.9706 18.764 13.8396 18.764C12.7087 18.764 11.6242 18.3148 10.8245 17.5151C10.0248 16.7155 9.57556 15.6309 9.57556 14.5ZM11.2812 14.5C11.2812 15.1785 11.5507 15.8293 12.0305 16.3091C12.5103 16.7889 13.1611 17.0584 13.8396 17.0584C14.5182 17.0584 15.1689 16.7889 15.6487 16.3091C16.1285 15.8293 16.3981 15.1785 16.3981 14.5C16.3981 13.8214 16.1285 13.1707 15.6487 12.6909C15.1689 12.2111 14.5182 11.9415 13.8396 11.9415C13.1611 11.9415 12.5103 12.2111 12.0305 12.6909C11.5507 13.1707 11.2812 13.8214 11.2812 14.5V14.5Z" fill="white"/>
<path d="M0.041057 10.0363C0.670779 8.09047 1.70549 6.30006 3.07709 4.78296C3.19051 4.65762 3.33861 4.56881 3.50261 4.52781C3.6666 4.48682 3.83907 4.49548 3.99813 4.5527L7.26954 5.72276C7.50243 5.80593 7.75062 5.83745 7.99691 5.81516C8.24319 5.79286 8.48169 5.71727 8.69586 5.59364C8.91003 5.47001 9.09475 5.30128 9.23723 5.09915C9.3797 4.89703 9.47652 4.66634 9.52098 4.42307L10.1452 1.00157C10.1754 0.835009 10.2544 0.681192 10.3723 0.559695C10.4901 0.438199 10.6415 0.35452 10.807 0.319312C12.8058 -0.106437 14.8718 -0.106437 16.8706 0.319312C17.0358 0.354821 17.1868 0.438633 17.3043 0.560106C17.4218 0.681579 17.5006 0.835235 17.5306 1.00157L18.1566 4.42307C18.2011 4.66634 18.2979 4.89703 18.4404 5.09915C18.5828 5.30128 18.7676 5.47001 18.9817 5.59364C19.1959 5.71727 19.4344 5.79286 19.6807 5.81516C19.927 5.83745 20.1752 5.80593 20.408 5.72276L23.6795 4.5527C23.8387 4.49568 24.0113 4.48729 24.1753 4.52859C24.3393 4.5699 24.4873 4.65903 24.6005 4.78466C25.9719 6.30127 27.0066 8.09107 27.6365 10.0363C27.6885 10.197 27.6916 10.3695 27.6455 10.5319C27.5993 10.6944 27.506 10.8395 27.3773 10.9488L24.725 13.2003C24.5366 13.3604 24.3853 13.5596 24.2815 13.784C24.1777 14.0084 24.1239 14.2527 24.1239 14.5C24.1239 14.7472 24.1777 14.9915 24.2815 15.2159C24.3853 15.4404 24.5366 15.6395 24.725 15.7997L27.3773 18.0511C27.506 18.1604 27.5993 18.3055 27.6455 18.468C27.6916 18.6304 27.6885 18.8029 27.6365 18.9636C27.0068 20.9095 25.9721 22.6999 24.6005 24.217C24.4871 24.3423 24.339 24.4311 24.175 24.4721C24.011 24.5131 23.8385 24.5044 23.6795 24.4472L20.408 23.2772C20.1752 23.194 19.927 23.1625 19.6807 23.1848C19.4344 23.2071 19.1959 23.2826 18.9817 23.4063C18.7676 23.5299 18.5828 23.6986 18.4404 23.9008C18.2979 24.1029 18.2011 24.3336 18.1566 24.5769L17.5306 28.0001C17.5003 28.1661 17.4214 28.3194 17.3039 28.4405C17.1864 28.5617 17.0356 28.6452 16.8706 28.6806C14.8718 29.1065 12.8058 29.1065 10.807 28.6806C10.6415 28.6454 10.4901 28.5617 10.3723 28.4402C10.2544 28.3187 10.1754 28.1649 10.1452 27.9984L9.52268 24.5769C9.47823 24.3336 9.38141 24.1029 9.23893 23.9008C9.09646 23.6986 8.91173 23.5299 8.69756 23.4063C8.48339 23.2826 8.2449 23.2071 7.99861 23.1848C7.75233 23.1625 7.50414 23.194 7.27124 23.2772L3.99813 24.4472C3.83891 24.5042 3.66633 24.5126 3.50233 24.4713C3.33833 24.43 3.19031 24.3409 3.07709 24.2153C1.70566 22.6987 0.67095 20.9089 0.041057 18.9636C-0.0107419 18.8028 -0.013591 18.6302 0.032871 18.4677C0.0793329 18.3052 0.173011 18.1602 0.302019 18.0511L2.95258 15.7997C3.14099 15.6395 3.29233 15.4404 3.39613 15.2159C3.49992 14.9915 3.55368 14.7472 3.55368 14.5C3.55368 14.2527 3.49992 14.0084 3.39613 13.784C3.29233 13.5596 3.14099 13.3604 2.95258 13.2003L0.302019 10.9488C0.173011 10.8397 0.0793329 10.6947 0.032871 10.5322C-0.013591 10.3698 -0.0107419 10.1972 0.041057 10.0363V10.0363ZM1.85074 10.0261L4.05783 11.8989C4.43524 12.2191 4.73844 12.6176 4.94639 13.0668C5.15433 13.516 5.26205 14.005 5.26205 14.5C5.26205 14.9949 5.15433 15.484 4.94639 15.9331C4.73844 16.3823 4.43524 16.7808 4.05783 17.1011L1.84903 18.9738C2.34708 20.3076 3.06685 21.5494 3.97255 22.6444L6.69474 21.6722C7.16064 21.5058 7.65714 21.4428 8.14982 21.4875C8.6425 21.5322 9.11956 21.6835 9.54792 21.931C9.97629 22.1784 10.3457 22.5161 10.6306 22.9205C10.9154 23.325 11.1089 23.7866 11.1976 24.2733L11.7178 27.1183C13.121 27.3522 14.5532 27.3522 15.9563 27.1183L16.4766 24.2698C16.5649 23.783 16.7582 23.3213 17.0431 22.9167C17.3279 22.5121 17.6974 22.1744 18.1259 21.9271C18.5544 21.6797 19.0316 21.5286 19.5244 21.4843C20.0172 21.44 20.5137 21.5035 20.9794 21.6705L23.7033 22.6444C24.6107 21.5477 25.3284 20.3071 25.8269 18.9738L23.6198 17.1011C23.2418 16.7811 22.9382 16.3827 22.7299 15.9335C22.5216 15.4843 22.4137 14.9951 22.4137 14.5C22.4137 14.0048 22.5216 13.5156 22.7299 13.0664C22.9382 12.6172 23.2418 12.2188 23.6198 11.8989L25.8269 10.0261C25.3284 8.69283 24.6107 7.45224 23.7033 6.35555L20.9811 7.32777C20.5154 7.49409 20.019 7.55714 19.5264 7.51255C19.0338 7.46796 18.5568 7.31679 18.1285 7.06952C17.7002 6.82225 17.3307 6.4848 17.0458 6.08054C16.7608 5.67629 16.5672 5.21491 16.4783 4.72838L15.9563 1.88167C14.5532 1.64773 13.121 1.64773 11.7178 1.88167L11.1993 4.72838C11.1107 5.21527 10.9172 5.67704 10.6322 6.08165C10.3472 6.48626 9.97761 6.82402 9.54904 7.07149C9.12047 7.31896 8.64318 7.47022 8.1503 7.51477C7.65741 7.55932 7.16074 7.49609 6.69474 7.32947L3.97255 6.35555C3.0652 7.45224 2.34748 8.69283 1.84903 10.0261H1.85074ZM9.57556 14.5C9.57556 13.3691 10.0248 12.2845 10.8245 11.4848C11.6242 10.6851 12.7087 10.2359 13.8396 10.2359C14.9706 10.2359 16.0551 10.6851 16.8548 11.4848C17.6545 12.2845 18.1037 13.3691 18.1037 14.5C18.1037 15.6309 17.6545 16.7155 16.8548 17.5151C16.0551 18.3148 14.9706 18.764 13.8396 18.764C12.7087 18.764 11.6242 18.3148 10.8245 17.5151C10.0248 16.7155 9.57556 15.6309 9.57556 14.5ZM11.2812 14.5C11.2812 15.1785 11.5507 15.8293 12.0305 16.3091C12.5103 16.7889 13.1611 17.0584 13.8396 17.0584C14.5182 17.0584 15.1689 16.7889 15.6487 16.3091C16.1285 15.8293 16.3981 15.1785 16.3981 14.5C16.3981 13.8214 16.1285 13.1707 15.6487 12.6909C15.1689 12.2111 14.5182 11.9415 13.8396 11.9415C13.1611 11.9415 12.5103 12.2111 12.0305 12.6909C11.5507 13.1707 11.2812 13.8214 11.2812 14.5V14.5Z" fill="white"/>
</svg>
