<svg width="30" height="30" viewBox="0 0 30 30" fill="none" xmlns="http://www.w3.org/2000/svg">
<circle cx="15" cy="15" r="15" fill="#519259"/>
<path d="M22.7755 13.3961L16.283 7.50414C15.9197 7.17904 15.4627 7 14.997 7C14.5307 7 14.0755 7.17932 13.7153 7.50522L7.2146 13.3979C7.02098 13.5769 6.94893 13.864 7.03748 14.1484C7.13675 14.4084 7.36584 14.5765 7.62105 14.5765H8.15855V20.8518C8.15855 22.0364 9.05408 23 10.1549 23H19.8367C20.9376 23 21.8331 22.0364 21.8331 20.8518L21.833 14.5765H22.3781C22.6382 14.5765 22.872 14.3989 22.9561 14.1431C23.0555 13.869 22.9824 13.574 22.7755 13.3961ZM17.3245 22.4064H12.6677V17.7467C12.6677 17.3557 12.9783 17.0253 13.3461 17.0253H16.654C17.0238 17.0253 17.3244 17.349 17.3244 17.7467L17.3245 22.4064ZM22.4394 13.9362C22.432 13.9585 22.412 13.9825 22.3784 13.9825H21.5574C21.4048 13.9825 21.2815 14.1156 21.2815 14.2794V20.8516C21.2815 21.7087 20.6334 22.406 19.8369 22.406H17.876L17.8762 17.7467C17.8762 17.0215 17.3279 16.4316 16.654 16.4316H13.3461C12.6677 16.4316 12.1159 17.0215 12.1159 17.7467V22.4064H10.1555C9.35869 22.4064 8.71086 21.709 8.71086 20.8519V14.2797C8.71086 14.1159 8.58757 13.9828 8.43497 13.9828H7.62132C7.58412 13.9828 7.559 13.9519 7.55481 13.9419C7.54323 13.9048 7.55013 13.8706 7.57218 13.8502L14.0709 7.95956C14.3314 7.72379 14.6605 7.59378 14.9972 7.59378C15.3346 7.59378 15.6659 7.7238 15.9288 7.95919L22.4257 13.8549C22.4412 13.8684 22.4568 13.8888 22.4397 13.9367L22.4394 13.9362Z" fill="white"/>
</svg>
