<svg width="95" height="40" viewBox="0 0 95 40" fill="none" xmlns="http://www.w3.org/2000/svg">
<g filter="url(#filter0_d_180_2985)">
<path d="M4 16C4 7.16344 11.1634 0 20 0H71C79.8366 0 87 7.16344 87 16C87 24.8366 79.8366 32 71 32H20C11.1634 32 4 24.8366 4 16Z" fill="white" fill-opacity="0.5" shape-rendering="crispEdges"/>
<path d="M40.8388 13V11.752H43.3348V20.5H41.9548V13H40.8388ZM50.8541 12.928H46.8341V15.316C47.0021 15.092 47.2501 14.904 47.5781 14.752C47.9141 14.6 48.2701 14.524 48.6461 14.524C49.3181 14.524 49.8621 14.668 50.2781 14.956C50.7021 15.244 51.0021 15.608 51.1781 16.048C51.3621 16.488 51.4541 16.952 51.4541 17.44C51.4541 18.032 51.3381 18.56 51.1061 19.024C50.8821 19.48 50.5421 19.84 50.0861 20.104C49.6381 20.368 49.0861 20.5 48.4301 20.5C47.5581 20.5 46.8581 20.284 46.3301 19.852C45.8021 19.42 45.4861 18.848 45.3821 18.136H46.7141C46.8021 18.512 46.9981 18.812 47.3021 19.036C47.6061 19.252 47.9861 19.36 48.4421 19.36C49.0101 19.36 49.4341 19.188 49.7141 18.844C50.0021 18.5 50.1461 18.044 50.1461 17.476C50.1461 16.9 50.0021 16.46 49.7141 16.156C49.4261 15.844 49.0021 15.688 48.4421 15.688C48.0501 15.688 47.7181 15.788 47.4461 15.988C47.1821 16.18 46.9901 16.444 46.8701 16.78H45.5741V11.728H50.8541V12.928ZM64.1794 13.78C64.6994 13.78 65.1634 13.888 65.5714 14.104C65.9874 14.32 66.3114 14.64 66.5434 15.064C66.7834 15.488 66.9034 16 66.9034 16.6V20.5H65.5474V16.804C65.5474 16.212 65.3994 15.76 65.1034 15.448C64.8074 15.128 64.4034 14.968 63.8914 14.968C63.3794 14.968 62.9714 15.128 62.6674 15.448C62.3714 15.76 62.2234 16.212 62.2234 16.804V20.5H60.8674V16.804C60.8674 16.212 60.7194 15.76 60.4234 15.448C60.1274 15.128 59.7234 14.968 59.2114 14.968C58.6994 14.968 58.2914 15.128 57.9874 15.448C57.6914 15.76 57.5434 16.212 57.5434 16.804V20.5H56.1754V13.888H57.5434V14.644C57.7674 14.372 58.0514 14.16 58.3954 14.008C58.7394 13.856 59.1074 13.78 59.4994 13.78C60.0274 13.78 60.4994 13.892 60.9154 14.116C61.3314 14.34 61.6514 14.664 61.8754 15.088C62.0754 14.688 62.3874 14.372 62.8114 14.14C63.2354 13.9 63.6914 13.78 64.1794 13.78ZM69.3401 13.012C69.0921 13.012 68.8841 12.928 68.7161 12.76C68.5481 12.592 68.4641 12.384 68.4641 12.136C68.4641 11.888 68.5481 11.68 68.7161 11.512C68.8841 11.344 69.0921 11.26 69.3401 11.26C69.5801 11.26 69.7841 11.344 69.9521 11.512C70.1201 11.68 70.2041 11.888 70.2041 12.136C70.2041 12.384 70.1201 12.592 69.9521 12.76C69.7841 12.928 69.5801 13.012 69.3401 13.012ZM70.0121 13.888V20.5H68.6441V13.888H70.0121ZM75.1442 13.78C75.6642 13.78 76.1282 13.888 76.5362 14.104C76.9522 14.32 77.2762 14.64 77.5082 15.064C77.7402 15.488 77.8562 16 77.8562 16.6V20.5H76.5002V16.804C76.5002 16.212 76.3522 15.76 76.0562 15.448C75.7602 15.128 75.3562 14.968 74.8442 14.968C74.3322 14.968 73.9242 15.128 73.6202 15.448C73.3242 15.76 73.1762 16.212 73.1762 16.804V20.5H71.8082V13.888H73.1762V14.644C73.4002 14.372 73.6842 14.16 74.0282 14.008C74.3802 13.856 74.7522 13.78 75.1442 13.78Z" fill="#FEFDFD"/>
<path d="M22.25 28.5C19.8272 28.5 17.4588 27.7816 15.4443 26.4355C13.4298 25.0895 11.8597 23.1763 10.9325 20.9379C10.0053 18.6995 9.76272 16.2364 10.2354 13.8601C10.7081 11.4839 11.8748 9.30114 13.5879 7.58795C15.3011 5.87475 17.4839 4.70805 19.8601 4.23539C22.2364 3.76272 24.6995 4.00531 26.9379 4.93248C29.1763 5.85965 31.0895 7.42977 32.4355 9.44427C33.7816 11.4588 34.5 13.8272 34.5 16.25C34.5 19.4989 33.2094 22.6147 30.9121 24.9121C28.6147 27.2094 25.4989 28.5 22.25 28.5ZM22.25 5.75001C20.1733 5.75001 18.1432 6.36582 16.4165 7.51957C14.6898 8.67333 13.344 10.3132 12.5493 12.2318C11.7546 14.1505 11.5466 16.2617 11.9518 18.2985C12.3569 20.3353 13.3569 22.2062 14.8254 23.6746C16.2938 25.1431 18.1648 26.1431 20.2016 26.5483C22.2384 26.9534 24.3496 26.7455 26.2682 25.9507C28.1868 25.156 29.8267 23.8102 30.9804 22.0835C32.1342 20.3568 32.75 18.3267 32.75 16.25C32.75 13.4652 31.6438 10.7945 29.6746 8.82538C27.7055 6.85625 25.0348 5.75001 22.25 5.75001Z" fill="#FEFDFD"/>
<path d="M25.8913 22.125L21 17.2337V9H22.75V16.5075L27.125 20.8913L25.8913 22.125Z" fill="#FEFDFD"/>
</g>
<defs>
<filter id="filter0_d_180_2985" x="0" y="0" width="95" height="40" filterUnits="userSpaceOnUse" color-interpolation-filters="sRGB">
<feFlood flood-opacity="0" result="BackgroundImageFix"/>
<feColorMatrix in="SourceAlpha" type="matrix" values="0 0 0 0 0 0 0 0 0 0 0 0 0 0 0 0 0 0 127 0" result="hardAlpha"/>
<feOffset dy="4"/>
<feGaussianBlur stdDeviation="2"/>
<feComposite in2="hardAlpha" operator="out"/>
<feColorMatrix type="matrix" values="0 0 0 0 0 0 0 0 0 0 0 0 0 0 0 0 0 0 0.2 0"/>
<feBlend mode="normal" in2="BackgroundImageFix" result="effect1_dropShadow_180_2985"/>
<feBlend mode="normal" in="SourceGraphic" in2="effect1_dropShadow_180_2985" result="shape"/>
</filter>
</defs>
</svg>
