<svg width="21" height="18" viewBox="0 0 21 18" fill="none" xmlns="http://www.w3.org/2000/svg">
<path d="M20.6515 2.65216C20.6079 2.54791 20.5343 2.45872 20.44 2.39571C20.3456 2.33271 20.2346 2.29869 20.1209 2.29791H17.0722C16.6954 1.61106 16.1411 1.03617 15.4663 0.632329C14.7915 0.228484 14.0205 0.0102453 13.2325 4.20407e-05C12.0486 -0.00506598 10.9108 0.455485 10.0683 1.2809C9.22571 2.10632 8.74693 3.22938 8.73674 4.40429V5.23726C4.64616 4.27024 1.26951 0.967061 1.23092 0.938338C1.15654 0.865472 1.06368 0.813949 0.962174 0.789237C0.860672 0.764525 0.754322 0.767546 0.654411 0.79798C0.554499 0.828413 0.464753 0.885124 0.394699 0.962093C0.324644 1.03906 0.276893 1.13342 0.256514 1.23515C-0.582825 5.79258 0.796779 8.83726 2.0992 10.5894C2.78997 11.5275 3.63852 12.3405 4.60757 12.9926C3.1122 14.7926 0.652066 15.7309 0.623123 15.7404C0.540927 15.7705 0.466824 15.8189 0.406584 15.882C0.346344 15.9451 0.301591 16.0212 0.27581 16.1043C0.248433 16.1853 0.240285 16.2716 0.251999 16.3563C0.263712 16.4409 0.294972 16.5218 0.343343 16.5926C0.439819 16.7362 1.38528 18 4.68475 18C11.4091 18 17.0337 12.8394 17.5739 6.21386L20.5261 3.2745C20.6098 3.19669 20.6668 3.09487 20.6893 2.98329C20.7118 2.8717 20.6986 2.75592 20.6515 2.65216V2.65216ZM16.5995 5.55322C16.4992 5.65258 16.4405 5.78603 16.4355 5.92662C16.04 12.0543 10.8785 16.8511 4.68475 16.8511C3.34374 16.8511 2.48511 16.6213 1.97378 16.3915C3.06396 15.8457 4.84876 14.7734 5.93894 13.1458C5.98237 13.0783 6.0116 13.0028 6.02486 12.9238C6.03813 12.8448 6.03515 12.764 6.01612 12.6862C5.99555 12.6066 5.95828 12.5321 5.90675 12.4678C5.85521 12.4035 5.79057 12.3506 5.71705 12.3128C5.69775 12.3128 4.25061 11.566 2.99643 9.86172C1.50105 7.83194 0.91255 5.35216 1.24057 2.4894C2.64911 3.67663 5.6881 5.91705 9.21912 6.50109C9.30223 6.51676 9.38781 6.51384 9.46963 6.49256C9.55146 6.47127 9.62748 6.43216 9.69217 6.37805C9.75685 6.32395 9.80857 6.25622 9.84356 6.17978C9.87855 6.10335 9.89593 6.02014 9.89445 5.9362V4.40429C9.90209 3.53663 10.2554 2.70724 10.8773 2.09729C11.4991 1.48734 12.3389 1.14641 13.2132 1.14898C13.845 1.15803 14.4608 1.3469 14.9875 1.69314C15.5143 2.03938 15.9298 2.52843 16.1847 3.10216C16.2287 3.20537 16.3026 3.29326 16.3971 3.35463C16.4916 3.41601 16.6024 3.44811 16.7153 3.44684H18.722L16.5995 5.55322Z" fill="black"/>
</svg>
