<svg width="26" height="26" viewBox="0 0 26 26" fill="none" xmlns="http://www.w3.org/2000/svg">
<path d="M1 19L7.879 12.121C8.44158 11.5586 9.20451 11.2426 10 11.2426C10.7955 11.2426 11.5584 11.5586 12.121 12.121L19 19H1ZM16 16L18.379 13.621C18.9416 13.0586 19.7045 12.7426 20.5 12.7426C21.2955 12.7426 22.0584 13.0586 22.621 13.621L25 16H16ZM16 7H16.015H16ZM4 25H22C22.7956 25 23.5587 24.6839 24.1213 24.1213C24.6839 23.5587 25 22.7956 25 22V4C25 3.20435 24.6839 2.44129 24.1213 1.87868C23.5587 1.31607 22.7956 1 22 1H4C3.20435 1 2.44129 1.31607 1.87868 1.87868C1.31607 2.44129 1 3.20435 1 4V22C1 22.7956 1.31607 23.5587 1.87868 24.1213C2.44129 24.6839 3.20435 25 4 25Z" stroke="black" stroke-width="2" stroke-linecap="round" stroke-linejoin="round"/>
</svg>
